<?xml version="1.0" encoding="utf-8"?>
<!-- Generator: Adobe Illustrator 16.0.3, SVG Export Plug-In . SVG Version: 6.00 Build 0)  -->
<!DOCTYPE svg PUBLIC "-//W3C//DTD SVG 1.1//EN" "http://www.w3.org/Graphics/SVG/1.1/DTD/svg11.dtd">
<svg version="1.1" id="Capa_1" xmlns="http://www.w3.org/2000/svg" xmlns:xlink="http://www.w3.org/1999/xlink" x="0px" y="0px"
	 width="512px" height="512px" viewBox="0 0 512 512" enable-background="new 0 0 512 512" xml:space="preserve">
<g transform="matrix(0.9994 0 0 0.9994 0.0167244 0.0167244)">
	<g>
		<path fill="#020202" d="M511.954,304.351c0.027-0.303,0.184-0.57,0.184-0.89c0-0.643-0.064-1.286-0.193-1.892
			c-0.633-50.968-27.022-80.846-65.595-98.402V176.19c0-52.501-38.913-83.848-104.103-83.848c-48.811,0-82.886,17.583-96.924,48.462
			c-15.931-26.15-48.242-40.878-92.912-40.878c-65.182,0-104.095,31.347-104.095,83.849v24.608
			C18.84,226.709,0.137,256.137,0.137,303.451v45.387v0.009v0.009v52.713c0,10.128,8.236,18.364,18.364,18.364h24.369
			c10.128,0,18.364-8.235,18.364-18.364v-43.55h389.633v43.55c0,10.128,8.236,18.364,18.364,18.364h24.359
			c10.128,0,18.365-8.235,18.365-18.364v-52.713v-0.009v-0.009V304.351z M18.51,339.674v-27.032h475.079v27.022L18.51,339.674
			L18.51,339.674z M256.522,176.19c0-59.103,59.949-65.485,85.731-65.485c25.783,0,85.741,6.382,85.741,65.485v19.797
			c-50.399-16.83-115.416-17.768-171.729-17.813c-0.018-0.184-0.018-0.367-0.027-0.551
			C256.311,177.136,256.522,176.705,256.522,176.19z M66.687,183.783c0-59.113,59.957-65.485,85.731-65.485
			c24.92,0,81.599,6.115,85.373,59.875c-60.857,0.037-124.855,1.01-171.104,20.779V183.783z M246.726,196.537
			c65.871,0,136.718,0.028,185.547,19.76c0.909,0.578,1.873,0.973,2.957,1.221c32.797,14.057,55.055,37.517,58.01,76.77H18.794
			C24.552,203.727,117.344,196.537,246.726,196.537z M18.51,401.587v-43.531h24.359l0.009,43.531H18.51z M469.23,401.587v-43.531
			h24.359l0.019,43.531H469.23z"/>
	</g>
</g>
</svg>
