<?xml version="1.0" encoding="utf-8"?>
<!-- Generator: Adobe Illustrator 16.0.3, SVG Export Plug-In . SVG Version: 6.00 Build 0)  -->
<!DOCTYPE svg PUBLIC "-//W3C//DTD SVG 1.1//EN" "http://www.w3.org/Graphics/SVG/1.1/DTD/svg11.dtd">
<svg version="1.1" id="Layer_1" xmlns="http://www.w3.org/2000/svg" xmlns:xlink="http://www.w3.org/1999/xlink" x="0px" y="0px"
	 width="512px" height="512px" viewBox="0 0 512 512" enable-background="new 0 0 512 512" xml:space="preserve">
<g>
	<g>
		<g>
			<path fill="#595858" d="M484.84,0H315.782c-0.07,0-0.142,0.001-0.212,0.002c-56.801,1.18-103.484,46.36-107.569,102.323h-11.227
				c-75.174,0-136.937,58.49-142.184,132.354H27.16c-5.632,0-10.199,4.567-10.199,10.199v74.518c0,5.632,4.567,10.199,10.199,10.199
				h377.043c5.632,0,10.199-4.567,10.199-10.199v-74.518c0-5.632-4.567-10.199-10.199-10.199h-27.43
				c-5.246-73.861-67.01-132.354-142.186-132.354h-6.107c4.029-44.896,41.674-80.929,87.412-81.928H484.84
				c5.632,0,10.199-4.565,10.199-10.199C495.039,4.566,490.473,0,484.84,0z M394.004,255.077v54.118H37.36v-54.118H394.004
				L394.004,255.077z M234.589,122.723c63.927,0,116.538,49.353,121.735,111.956H75.041c5.198-62.604,57.81-111.956,121.733-111.956
				H234.589z"/>
		</g>
	</g>
	<g>
		<g>
			<path fill="#595858" d="M98.899,347.013c-5.632,0-10.199,4.565-10.199,10.199v38.927c0,5.632,4.567,10.199,10.199,10.199
				c5.632,0,10.199-4.567,10.199-10.199v-38.927C109.098,351.578,104.531,347.013,98.899,347.013z"/>
		</g>
	</g>
	<g>
		<g>
			<path fill="#595858" d="M98.899,452.674c-5.632,0-10.199,4.565-10.199,10.197V501.8c0,5.632,4.567,10.197,10.199,10.197
				c5.632,0,10.199-4.565,10.199-10.197v-38.929C109.098,457.24,104.531,452.674,98.899,452.674z"/>
		</g>
	</g>
	<g>
		<g>
			<path fill="#595858" d="M176.754,347.013c-5.632,0-10.199,4.565-10.199,10.199v38.927c0,5.632,4.567,10.199,10.199,10.199
				s10.199-4.567,10.199-10.199v-38.927C186.953,351.578,182.386,347.013,176.754,347.013z"/>
		</g>
	</g>
	<g>
		<g>
			<path fill="#595858" d="M176.754,452.674c-5.632,0-10.199,4.565-10.199,10.197V501.8c0,5.632,4.567,10.197,10.199,10.197
				s10.199-4.565,10.199-10.197v-38.929C186.953,457.24,182.386,452.674,176.754,452.674z"/>
		</g>
	</g>
	<g>
		<g>
			<path fill="#595858" d="M255.723,347.013c-5.632,0-10.199,4.565-10.199,10.199v38.927c0,5.632,4.567,10.199,10.199,10.199
				s10.199-4.567,10.199-10.199v-38.927C265.922,351.578,261.355,347.013,255.723,347.013z"/>
		</g>
	</g>
	<g>
		<g>
			<path fill="#595858" d="M255.723,452.674c-5.632,0-10.199,4.565-10.199,10.197V501.8c0,5.632,4.567,10.197,10.199,10.197
				s10.199-4.565,10.199-10.197v-38.929C265.922,457.24,261.355,452.674,255.723,452.674z"/>
		</g>
	</g>
	<g>
		<g>
			<path fill="#595858" d="M334.689,347.013c-5.633,0-10.199,4.565-10.199,10.199v38.927c0,5.632,4.566,10.199,10.199,10.199
				c5.631,0,10.199-4.567,10.199-10.199v-38.927C344.889,351.578,340.322,347.013,334.689,347.013z"/>
		</g>
	</g>
	<g>
		<g>
			<path fill="#595858" d="M334.689,452.674c-5.633,0-10.199,4.565-10.199,10.197V501.8c0,5.632,4.566,10.197,10.199,10.197
				c5.631,0,10.199-4.565,10.199-10.197v-38.929C344.889,457.24,340.322,452.674,334.689,452.674z"/>
		</g>
	</g>
</g>
</svg>
